<svg xmlns="http://www.w3.org/2000/svg" viewBox="47.9 147 3672.1 1136.17">
<path d="M677.91 212.88c8.65.32 17.07 2.61 25.65 3.64 9.53 1 19.08 1.79 28.64 2.39 5.77-1.99 11.99-.85 17.96-.73 5.23.94 10.56.64 15.84 1.12 5.35.99 10.83.43 16.19 1.46 8.57.46 17.34.13 25.7 2.34 4.11 1.22 2.96 6.23 4.23 9.41 5.88 12.28 16.11 21.78 26.31 30.51 3.58-.01 7.33.45 10.73-.94 2.11-.82 4.35-1.09 6.6-1.27.28-.46.83-1.36 1.1-1.81l4.41-.05c1.39-2.3 4.06-1.93 6.35-2.07.43-.41 1.28-1.23 1.7-1.64 4.36-.65 8.51-2.35 12.96-2.47 1.47-1.87 3.86-1.79 6.01-2.04 4.21-2.24 9.14-2.11 13.75-2.72 5.03-.19 10.28-.4 14.91 1.91-.03 3.01.52 6.05.19 9.05-1.43 2.26-3.41 4.11-5.38 5.89-3.28.61-7 .86-9.47 3.37-2.79 2.75-5.85 5.19-8.87 7.67l-2.06.12c-1.69 1.63-3.31 3.33-4.88 5.07 9.88 2.79 19.84-1.96 29.76-2.3 6.1-3.05 12.79-4.54 19.35-6.27 2.48-.95 5.05-1.6 7.71-1.77 1.12-.76 2.26-1.5 3.43-2.21.33-.39 1.01-1.15 1.35-1.53l2.87-.01.08-1.4c1.2-.83 2.4-1.67 3.62-2.49l1.7-.23c6.27-5.92 15.37-3.9 23.14-3.81 4.7 2.51 9.04 5.68 14.03 7.69 1.72.26 3.47.55 5.19.98 1.07.14 2.17.28 3.27.42.02.6.04 1.82.05 2.43-1.47.55-2.94 1.08-4.41 1.58 1.46 1 2.97 2.04 4.47 3.04-.05.75-.14 2.26-.18 3.01-5.7-1.21-11.79-2.14-17.38.02-4.87 2.35-10.37 1.68-15.57 2.44-6.36.6-12.56 2.34-18.95 2.56-2.86.64-5.79.81-8.65 1.39-2.29.56-4.56 1.13-6.85 1.6-1.35.52-2.7 1.01-4.03 1.51-5.89 1.39-11.36 4.04-16.41 7.31-7.25 3.44-12.57 9.71-19.45 13.72-4.99 3.01-10.89 3.92-16.6 4.47-3.43.5-7.07.69-10.04 2.69-5.14 3.27-10.17 6.88-15.98 8.87-5.49 1.93-11.15 3.42-16.44 5.86-8.65 4.05-18.11 6.08-27.57 6.99-12.5-.09-24.87-2.43-36.96-5.44l-2.35-.43c-3.62-1.17-7.15-2.67-10.83-3.65-3.15-.05-6.27 1.18-9.41.42-4.14-.47-8.1-1.91-12.22-2.38-2.57.55-5.06 1.42-7.59 2.1-2.65-1.84-5.01-4.05-7.16-6.44-5.55-.75-10.7 4.21-16.11 1.8-3.76-.93-2-5.35-2.27-8.12 3.11-.87 5.86-2.81 9.2-2.81 2.97-1.92 6.54-1.77 9.94-1.84 1.85-1.47 4.12-1.96 6.43-2.06l1.84-1.75c2.57-.04 5.14-.07 7.72-.16 1.84-1.21 3.94-1.85 6.1-2.27 1.55-1.72 3.87-1.63 5.99-1.84 1.95-1.99 4.22-3.81 7.09-4.13 1.98-1.79 4.13-3.44 5.78-5.57-4.14-2.98-7.62-6.85-9.52-11.64-4.45-5.3-7.56-11.7-12.81-16.29-1.05-1.19-1.59-2.71-2.31-4.08l-.9-.16c-2.13-3.62-5.74-5.99-8.06-9.46-2.36-3.44-5.03-6.64-8.02-9.54-3.02-.16-6.07.2-9.06-.25-12.77-2.84-25.94-2.88-38.83-4.91-1.2-.41-2.4-.81-3.6-1.18l-.02-1.86c1.96-1.68 4.4-3.15 5.11-5.81.36-1.64 2.16-2.04 3.34-2.93l2.69.15c-1.2-1.22-2.16-2.61-2.6-4.27 4.71-.73 9.48-.76 14.22-1.12-4.47-2.49-9.73-2.5-14.52-4.06-.09-.7-.28-2.09-.38-2.79zM335.57 216.99c1.03 0 2.06 0 3.1.01.27.64.82 1.91 1.1 2.54.84 4.52 1.51 9.08 1.25 13.69 1.68.44 3.41.59 5.09.04 1.38-.17 2.76-.31 4.15-.45 1.98-1.44 4.34-1.94 6.74-2.07l.04-1.71c.55-.03 1.65-.1 2.21-.14 1.16-1.75 3.2-1.96 5.09-2.33 5.22-1.34 10.85-.31 15.36 2.62 5.1 2.68 10.41 5.21 16.11 6.32.09 1.13.18 2.27.29 3.42-4.14 1.37-8.43 2.19-12.63 3.32-.98.34-1.97.68-2.95 1.01-6.58 4.58-14.79 4.36-22.42 5-9.76 2.74-19.93 3.73-29.55 7-1.67.71-3.34 1.4-5.02 2.05-5.67 3.1-12.23 4.6-17.15 8.96-6.06 4.16-11.67 8.93-18.06 12.6-.43.07-1.28.21-1.71.27-6.26 3.42-12.91 6.07-19.12 9.59-13.49 4.15-25.74 11.61-39.51 14.94-7.92 1.44-15.89 2.74-23.92 3.25-6.67.18-13.35.05-20.02.09-5.61.15-10.86-2.1-16.28-3.16l-2.29 1.49c-4.69 2.85-10.16 3.63-15.54 3.92-6.49.53-12.48 5.63-19.09 3.09-3.31-.21-4.08-4.17-6.92-5.12-2.47-.03-4.87.74-7.31 1 .5-1.64 1.06-3.26 1.65-4.87 1.12-.36 2.24-.73 3.35-1.11l1.81-.5c3.4-1.24 6.96-2 10.35-3.3-1.11-.33-2.14-1.54-3.37-1.03-3.84 1.1-7.75 1.88-11.71 2.37-.41-3.6 2.75-5.14 5.29-6.8 1.55 0 3.1.01 4.65.02.43-.5 1.3-1.49 1.74-1.99.48-.03 1.44-.1 1.92-.14 3.71-2.39 7.78-4.56 12.36-3.96l1.74-1.92h3.57l.05-1.52c1.95-.82 3.86-1.77 5.7-2.83l1.78-1.63 1.8-.08c1-2.41 3.63-1.87 5.71-2.12 0-.45.01-1.36.02-1.82h3.91c.03-.32.1-.96.14-1.28 3.9-1.89 3.59-6.89 1.82-10.17-2.13-1.7-3.91-3.8-5.34-6.12-1.2-.73-2.4-1.45-3.62-2.16-1.82-.48-3.63-1-5.45-1.46-5.4-2.87-11.27-5.35-15.06-10.4-1.67-1.28-3.36-2.55-4.95-3.92-1.05-.75-2.11-1.48-3.19-2.18l-1.69-.59c-2.42-1.57-4.92-3.01-7.45-4.4l-.15-2.74 1.87-2.49c2.42-.1 4.93 0 7.22-.95 4.31-1.78 9.03-1.04 13.55-1.13l1.8-2.12c5.54 1.81 11.43.54 17.06 1.8 6.5.46 12.96 1.65 19.51 1.31 5.21-.28 10.33 1.55 15.53.73 7.48-1.25 15.14-.28 22.49 1.34.31.4.93 1.22 1.24 1.63 6.01 3.16 11.52 7.19 17.65 10.13 4.9.72 9.81 1.44 14.78 1.2l1.15-2.02c1.45-.03 2.9-.06 4.36-.1 2.77-2.5 6.73-1.42 9.84-3.13 3.24-1.32 6.84-.63 10.25-.9 2.45-1.04 5.03-1.95 7.73-1.89 7.59-.02 15.19-.14 22.75.6 4.29.49 8.7.5 12.9-.6.86-1.99 1.79-3.96 2.67-5.94.28-.02.83-.08 1.1-.11 2.37-3.1 4.64-6.31 6.13-9.95m-45.04 26.26c-2.5 1.14-4.94 2.41-7.37 3.68.56.51 1.67 1.54 2.23 2.06 3.61.01 7.22.05 10.84-.12 2.8-1.45 5.95-1.78 9.04-2.1 4.6-2.69 10.1-2.93 15.21-4.01l2.5-1.07.11-.67c-4.54-1.56-9.39-.91-14.09-1.04-6.32-.21-12.43 1.68-18.47 3.27zM674 221.17l3.01-.09-.09 2.54-2.87-.03-.05-2.42zM1211.51 361.13l3.61-.04c1.51 1.41 3.02 2.83 4.41 4.38 3.76 3.58 8.3 6.11 12.94 8.37 10.84 2.64 21.6 5.97 32.76 6.93 11.95-.5 24.89-.13 35.1 6.94 5.25 3.62 11.85 1.75 17.76 2.43 6.17.94 12.52 1.14 18.43 3.38 5.98 1.97 10.67 6.33 15.99 9.53 7.17 1.11 13.51-2.61 20.22-4.37 4.58-2.97 9.72-4.93 14.75-7 5.09-1.99 10.31-3.69 15.09-6.39 4.97-1.63 10.22-2.44 14.92-4.83 1.72-.92 3.59-1.45 5.51-1.84v-1.27l2.53-1.14c4.49-1.55 9.26-2.14 13.96-1.1 3.15 1.5 6.1 3.37 9.08 5.2 3.41 2.11 7.38 2.97 11.06 4.52 1.89.14 3.8.29 5.72.48-.53 2.85-1.63 6.5-5.19 6.45-8.43-.07-15.78 4.89-24.07 5.6-11.19 1.53-22.46 2.6-33.53 4.87-9.2 3.11-17.74 8.01-25.17 14.26 7.06 4.26 15.25 6.39 22.16 10.95 5.37 5 9.82 11.05 16 15.16 7.48 5.5 15.7 10 22.71 16.14 2.79 2.41 6.1 4.38 9.73 5.19 2.35-.22 4.66-.84 7.02-1.17 0-.38-.01-1.16-.02-1.54 2.94-.99 5.9-1.9 8.95-2.54.02 1.34.05 2.68.1 4.03-2.66 1.9-5.31 3.87-7.44 6.39-5.59.31-10.47-2.9-15.94-3.48.66 2.18 1.26 4.38 1.69 6.63-4.81.57-7.79-3.42-11.36-5.8.45 2.26.9 4.52 1.27 6.81-5.49.54-8.79-4.66-13.84-5.62-2.52-.56-4.87-1.58-6.86-3.21-4.61-3.51-10.87-3.1-15.59-6.37-2.22-1.16-4.19-3.26-6.87-3.02-4.59.19-8.93-1.33-13.24-2.64-5.62 2.02-10.45-2.52-15.97-2.55-7.21-1.7-14.56-2.7-21.96-3-3.47-.66-6.47-3.08-10.14-2.94-8.29 4.46-17.21 7.78-26.4 9.81-5.69 1.5-11.55 2.32-17.37 3.1-10.46.59-20.69-2.42-31.08-2.99-4.95-.59-9.97-.88-14.79-2.22-2.78-.98-5.48-2.2-8.36-2.82-2.72 1.85-5.54 3.54-8.38 5.19-6.46.34-13.16-.9-19.39 1.3-3 1-5.75 2.94-9.04 2.74-2.8-2.29-6.04-.26-9.04.27-.71-1.13-1.41-2.25-2.09-3.36-3.16 1.32-6.33 2.62-9.66 3.39 0-2.94-.92-6.51 1.96-8.45l2.22.07c1.87-1.29 3.77-2.55 5.69-3.8-2.64-.13-5.24-.31-7.83-.64-.06-.57-.19-1.72-.26-2.29.33-.07 1-.22 1.33-.3 1.1-1.46 2.39-2.76 3.75-4.01l3.16.05c3.3-3.54 8.48-3.52 12.58-5.64 3.29-.6 6.42-1.83 9.66-2.65 2.04-1.5 4.14-2.93 6.38-4.15.27-.37.81-1.11 1.09-1.48l2.37-.06c3.12-5.23 10.96-5.3 13.25-11.39-7.96-4.28-15.71-8.91-23.15-14-3.33-2.29-5.19-6.05-8.36-8.49-3.23-2.73-6.52-5.54-8.88-9.05-.34-2.8-.15-5.63-.11-8.44 1.1-1.93 2.17-3.88 3.28-5.81 5.25.47 10.42 1.58 15.67 2.11 3.23-.04 6.37-.96 9.6-1.25-1.32-2.53-2.88-4.93-4.08-7.52zM1710.44 504.7c7.51-5.01 16.45-8.18 25.57-7.75 4.91-.25 9.74.75 14.55 1.63 5.71 1.12 11.58-.2 17.31.72 5.26 1.6 10.85 2.43 15.71 5.17 4.67 2.82 9.95 4.9 15.39 5.56 10.93-1.43 22.07-1.5 33.03-.12 6.73-.1 13.34 1.72 20.1 1.09 1.72.07 3.16-.97 4.64-1.73l1.67-.58c5.02-1.67 10.33-2.01 15.56-2.68 6.21-.53 10.96 4.26 16.18 6.81 4.18 1.8 8.67 2.7 13.09 3.77-.7.75-.8 2.28-2.08 2.24-2.71.55-5.44.96-8.17 1.28l.01.64c3.07.51 6.09 1.3 9.07 2.27-.04.74-.1 2.24-.13 2.99-5.46.09-10.95-.43-16.35.44-5.49 1.12-11.08-.09-16.6.41-4.72.4-9.44.03-14.05-.94-6.23-1.42-12.63-.84-18.94-.94-9.21-.35-18.85 1.92-26.15 7.75-2.34 2.01-5.44 2.74-7.81 4.64-.03.31-.09.93-.11 1.24 2.93 2.16 7.26 3.05 8.87 6.64.46 3.56.2 7.18.26 10.78.15 5.47-2.05 10.59-3.29 15.83-1.17 3.96-.82 8.13-.62 12.19.79 11.39-1.3 22.84-5.5 33.43-.61 2.32-1.29 4.64-1.91 6.96-3.46 11.36-7.29 22.67-12.98 33.14-1.73 3.3-3.67 6.48-5.51 9.71-1.51-.41-2.99-.81-4.45-1.23-1.28 2.55-2.91 6.13-6.43 4.64-.41-2.12-.51-4.28-.75-6.4-1.64 1.33-3.07 2.89-4.19 4.67-1.21.02-2.39.06-3.55.1-1.32-2.84-.3-5.81-.07-8.74-1.88-1.02-3.63 1.46-5.34 2.01-2.73-3.08-2.31-7.08-1.54-10.78-1.16-1.07-2.51-1.88-3.61-2.97-1.49-3.52-1.48-7.35-.26-10.94-4.6-3.18-4.94-9.01-4.12-14.05-1.63-2.31-3.4-4.69-3.66-7.59-.12-5.57-3.08-10.6-2.42-16.25-2.79-3.77-1.61-8.56-1.76-12.89-.12-1.73 1.05-3.14 1.75-4.61l.13-1.6c-3.4-6.31-8.76-11.07-13.41-16.38-1.26-1.09-3.54-2.35-4.81-.67-5.17 7.44-12.06 13.45-19.23 18.9-4.25 3.03-6.38 8.15-10.58 11.21-2.87 1.55-6.01 2.51-9.02 3.71-.12-1.84-.19-3.67-.22-5.49-1.76.35-3.51.71-5.25 1.04.17-3.25 1.12-6.75-.79-9.68-2.22-3.8 2.07-8.52-1.67-11.74.21-2.26.66-4.53.3-6.79-3.57.13-7.15.62-10.41 2.15-4.06 1.44-7.61 4.49-12.12 4.24-1.01-1.47-2.04-2.91-3.07-4.33-1.26.18-2.5.38-3.71.58-.02-1.3-.02-2.59.01-3.88 2.04-1.97 4.04-3.99 5.92-6.13-1.17-.43-2.23-1.38-3.51-1.02-3.52.62-7.1.65-10.64.84-2.37.91-4.94.77-7.4.67 2.05-3.21 5.67-4.83 8.11-7.67l-.42-1.1c-2.71.34-5.74 2.54-8.24.55.2-1.53 1.3-2.47 2.6-3.13 5.62-2.74 11.87-3.51 17.77-5.42 5.01-1.61 10.61-.99 15.34-3.55 4.51-2.52 9.35-4.36 13.9-6.81-2.7-3.84-6.67-6.9-8.47-11.26 7.39-5.31 16.67-6.52 24.78-10.26l1.68-.47c1-.37 2.02-.73 3.05-1.08 2.93-1.15 5.91-2.2 8.97-2.99zM2123.2 518.46c5.75 2.75 9.52 8.11 14.07 12.37 5.67 6.18 12.56 11.29 20.4 14.37 10.8 4.26 21.03 9.98 32.29 13.05 7.36 2.59 16 2.62 22.12 8-.06 1.15-.09 2.32-.09 3.49-2.25.75-4.46 1.54-6.66 2.33-1.42 1.45-2.91 2.82-4.06 4.47-.46 1.89-.26 3.86-.27 5.79 2.63 4.34 3.97 10.57 9.47 12.18 5.59 2.49 11.52 4.66 17.76 3.45 1.23-.69 2.5-1.41 3.87-1.9 2.6.64 4.75 2.48 7.22 3.53-.4-1.82-.75-3.61-1.24-5.39 1.13-1.69 2.6-3.11 4.28-4.27 1.03.02 2.09.04 3.18.08.43 1.46.77 3.08 2.3 3.86.92-1.57 1.69-3.23 2.5-4.87.98-.01 2-.01 3.05 0 .82 1.21 1.65 2.41 2.52 3.62.42 5.22.42 10.46.02 15.68 4.05-.54 7.87-2.42 12.02-2.32 9.02.01 18.04.03 27.07.03 2.95.08 5.85-.63 8.59-1.73 6-1.72 12.2-2.96 18.45-3.19 7.52.61 12.06 7.51 18.73 10.12 1.68.77 3.37 1.6 5.08 2.4 0 1.29.03 2.59.11 3.9-.63.31-1.88.95-2.51 1.27-3.94.92-7.85 1.98-11.83 2.59-8.11 2.16-16.4.27-24.6.65-5.08.28-10.03-1.16-15.08-1.04-7.88.06-15.9-.76-23.57 1.48-8.13 1.34-14.44 6.99-21.79 10.22-6.11 3.2-12.99 4.45-19.14 7.56l-21.16 9.96c-7.5 2.52-14.88 5.46-22.53 7.47-10.49 2.02-21.22 2.88-31.89 2.16-7.92-1.17-15.96-1.49-23.79-3.2-5.04-.84-10.63-1.55-15.26 1.07-3.09 1.62-6.68 1.17-9.95 2.04 1.26 3.34 2.5 6.72 3.32 10.23 2.3 2.44 5.71 1.96 8.77 2.03 4.27-.05 8.37 1.38 12.54 2.18 2.91 1.71 5.61 4.02 5.86 7.66 3.04.67 6.05 1.52 9.07 2.37 10.06 5.39 19.5 13.93 31.57 13.83 3.82-.19 7.16 2.39 11.02 1.99 4.37-.33 8.63-1.49 12.95-2.26 9.13-2.02 18.61-2.01 27.68-4.47.44-.12 1.33-.38 1.78-.51 3.68-1.66 7.39-3.92 11.58-3.81 3.94.03 7.93-.24 11.88.26 4.75 1.48 8.19 5.39 12.66 7.5 3.74 1.28 7.52 2.47 11.18 4.03-1.17 1.45-2.8 2.24-4.6 2.47.37 1.19.77 2.38 1.25 3.56-8.53.21-16.86 3.62-25.42 2.09-8.58-1.85-17.42-.03-26.02-1.58-4.31 1-8.83.25-13.06 1.56-4.43 1.17-8.81 2.51-13.29 3.43-1.72.7-3.44 1.36-5.15 1.98-2.68 1.38-5.4 2.65-8.01 4.11-1.51.86-3.19 2.26-2.45 4.2 2.25 1.94 5.26 2.92 7.24 5.23 1.42 2.13 2.34 4.57 3.58 6.83l.5 1.73c.6 2.39.53 5.07 2.04 7.16 1.46 1.93 3.13 3.72 4.38 5.83.66 1.36 1.26 2.87 2.51 3.87 1.54-2 2.81-4.48 5.63-4.8 1.92 4.31 1.27 9.18-.12 13.55-4.67.02-9.37.24-13.98-.53-.65 1.53-1.25 3.08-1.88 4.62-3.06-.05-6.1-.13-9.11-.41-1.64 1.74-3 3.73-4.77 5.32-2.37.34-4.49-.9-6.6-1.68-7.32-.74-12.67-6.76-19.43-9.07-3.31-.34-6.13-2.1-8.62-4.16-.95-.06-1.87-.11-2.75-.15-4.7-3.39-10.44-5.3-14.17-9.92l-5.89-.03c-1.89-1.34-3.69-2.82-5.7-3.92-1.69-.04-3.3.5-4.9.82-11.49 2.61-23.46 2.77-35.1 1.26-5.4-.52-10.93.61-16.21-.84-7.18-2.17-14.92-1.67-22.11.18-5.26 1.57-10.53-1.15-15.83-.3-4.3.65-8.63 1.05-12.96.74-1.93-.96-3.92-1.79-5.91-2.54.43-.77.88-1.52 1.36-2.27 2.47-.08 5-.1 7.32-1.19-1.83-2.46-4.71-2.11-7.25-1.33l-1.71.6c-2.46 1.47-5 2.96-7.94 3.06-1.24-1.33-2.48-2.64-3.73-3.91.61-4.81.09-10.82 4.44-14.06 3.89-2.28 8.54-2.09 12.86-2.88 8.71-1.57 17.68-1.29 26.29-3.55 5.47-2.54 10.3-6.27 15.91-8.54 3.29-1.35 6.8-2.06 10.24-2.99 2.82-.05 5.28-1.31 7.34-3.19-3.33-.15-6.65-.15-9.96-.13-.04-1.53-.03-3.04 0-4.55-1.07-1.02-2.12-2.04-3.15-3.04.2-1.32.43-2.63.7-3.92-1.65-.97-3.27-1.91-4.74-3.09.67-1.86 1.06-3.83 1.93-5.62.98-.65 2.08-1.17 3.17-1.72-.44-1.53-.87-3.06-1.23-4.59 2.92-3.05 6.44-5.78 10.59-6.89.54-.6 1.11-1.19 1.71-1.78 5.4 1.73 11 2.82 16.66 3.36-1.11-2.01-2.64-3.73-4.6-4.89-.44-.93-.85-1.86-1.2-2.77l2.87-.52c.46-.85.95-1.68 1.47-2.5 1.91-1.03 3.78-2.15 5.58-3.39-.68-1.14-1.35-2.27-2-3.38-4.41 1.06-8.79 2.97-13.41 2.23-1.03-1.01-1.31-2.44-1.76-3.71-1.65-.53-3.28-1.07-4.89-1.57.3-1.06.63-2.1.98-3.14-.32-1.63-.6-3.27-.82-4.89 1.36-.61 2.75-1.22 4.16-1.82-.03-1.39-.02-2.78.02-4.15 1.17-.47 2.36-.95 3.57-1.44 4.71-.74 9.76-2.43 14.38-.35 6.71-1.66 13.72-1.22 20.51-2.27 5.92-2.39 11.3-6 17.41-7.99 3.9-8.36-4.53-15.07-5.22-23.01-.44-1.15-.8-2.28-1.15-3.41 1.31-2.86-1.28-4.07-3.19-5.55-1.34-5.5-2.13-11.55.59-16.77 2.02-3.31 6.31-3.39 9.66-4.42-2.59-3.44-6.52-5.47-9.11-8.88-2.19-1.45-3.68-3.57-3.88-6.22-5.11-4.07-5.32-11.04-8.98-16.1-1.04-1.38-1.96-2.98-1.56-4.76 1.87-3.17 5.89.02 8.64.39 1.76.03 3.48-.01 5.3-.06-2.36-3.38-7.96-3.24-8.56-7.97 3.24-.19 6.33.72 9.11 2.37 3.84 2.12 7.74 4.37 12.15 5.08-3.61-4.73-11.12-6.17-12.19-12.69 4.31.49 7.66 3.33 10.8 6.09 3.84 2.92 7.7 6.03 12.33 7.65-4.26-4.29-8.95-8.13-12.68-12.93.06-.74.18-2.22.23-2.96m-31.59 141.28c1.76 3.18 3.41 6.44 5.6 9.36.81.02 2.43.06 3.23.09-.77-1.64-1.55-3.26-2.35-4.85l-.03-2.02c-.86-1.12-1.67-2.27-2.58-3.28-1.34.02-2.63.41-3.87.7m-10.04 1.34l-3.09 1.67c2.84 4.02 7.71 5.46 11.92 7.55-.13-4.04-3.21-6.73-5.86-9.34-1.02.03-2.01.07-2.97.12m-18.13 39.03c.16 3.3 2.96-1.57 0 0zM2758 718.77c1.48.18 3.05.23 4.57.67 2.49 2.69 4.58 5.74 6.87 8.62 9.64-.24 19.44-2.59 28.98.09 5.57 1.46 8.25 7.99 14.36 8.22 10.31 1.5 18.35 10.62 29.17 9.65 1.1-.04 2.23-.07 3.42-.1 3.38-1.47 6.77-3 10.36-4 7.53-1.99 14.12-6.57 21.75-8.3 4.83-1.24 10.03-1.33 14.55-3.65 5.65-2.98 11.55-5.83 17.94-6.79 3.83-.35 8.07-.79 11.47 1.49 4.5 2.7 8.97 5.51 14.02 7.12 2.24.55 2.86 3.05 4.17 4.69l.05 2.33c-3.64.12-7.2.72-10.74 1.42-5.17 1.81-10.63 1.81-16 1.97-10.14 1.52-20.46 1.53-30.44 3.99-6.65 2.2-13.43 4.78-18.72 9.52-4.13 3.91-6.83 9.06-10.93 13 1.95 1.86 4.16 3.41 6.3 5.08 2.76 2.21 4.11 5.61 5.69 8.69.43 2.32.93 4.64 1.34 6.98 3.74 5.2 8.09 10.17 9.96 16.45.63 2.76 2.86 4.59 4.85 6.46l-.02 2.78c-2.26-.37-4.49-.99-6.76-.65.28 1.83.56 3.68.85 5.53-1.57-.16-3.09-.31-4.58-.53-1.23-.56-2.44-1.11-3.6-1.66-.43 1.45-.82 2.9-1.13 4.37-.62 1.08-1.21 2.16-1.76 3.25-2.68-1.24-5.09-2.91-7.22-4.92-1.46 1.83-3.07 3.53-4.87 5.01-1.95-2-3.54-4.27-5.12-6.52-1.24.17-2.43.42-3.57.74-2.51-1.46-4.03-4.03-6.39-5.65-3.35.16-5.87-2.12-8.36-3.97-3.41.25-6.57-.84-9.18-2.96-.94-.12-1.84-.21-2.7-.3-2.23-1.34-4.65-2.33-6.82-3.7-.88-1.41-1.37-3.01-1.98-4.49-.53.4-1.59 1.22-2.11 1.62-1.7-1.2-3.34-2.48-4.92-3.77-6.26.18-12.27 1.87-18.15 3.85-7.04 2.05-14.41 1.24-21.55 2.5-9.66.29-19.36.16-28.91 1.79-7.31 1.03-14.43 3.02-21.64 4.51-2.32 1.08-4.64 2.13-6.98 3.11-5.32 2.85-10.34 6.31-16 8.47-1.88.39-3.73.85-5.55 1.33l.04 2.34c6.24 7.89 13.73 14.64 20.77 21.8 3.49 3.41 3.66 8.64 4.75 13.13 1.44 5.95-1.22 12.65 2.2 18.1 1.09 2.23 2.01 4.56 2.6 7 .46 1.03.96 2.06 1.5 3.1 1.32 6.38 2.4 12.87 2.19 19.41-.1 7.41 1.83 14.66 2.13 22.04-2.45.04-4.86.04-7.26 0-.95 2.96-.97 6.07-.96 9.16-.91.48-1.77.98-2.6 1.49-1.28-.25-2.52-.5-3.72-.73-1.01-1.25-2.01-2.47-3.03-3.64-.88 2.29-1.2 4.81-2.35 6.99-1.32 1.12-3.29.54-4.84.86-.82-.92-1.6-1.82-2.36-2.71-.05-1.95-.09-3.9-.09-5.83-.92.47-1.81.97-2.66 1.47-.41 1.66-.82 3.32-1.25 4.98l-2.57-.08c-1.1-1.14-2.19-2.25-3.25-3.36-.39-1.91-.82-3.8-1.27-5.67l-3.03.11c-1.46-2.06-2.76-4.21-3.67-6.53-.44-1.65-.91-3.26-1.38-4.86-3.17-2.07-5.91-4.81-7.6-8.2-1.28-2.89-4.68-3.8-6.32-6.37-2.55-4.32-6.31-7.69-9.25-11.7-4.19-2.31-4.15-8.05-8.61-9.98-.58-2.34-1.05-4.72-1.22-7.11-1.21-2.48-3.29-4.21-5.94-4.88-.46-1.12-.92-2.26-1.28-3.35-3.54-3.77-6.22-8.23-9.16-12.45-1.41-1.31-2.69-2.72-3.87-4.19-3.68-2.32-7.2-4.93-9.99-8.27-12.04-2.66-24.49.21-36.54-2.06-3.66-.41-7.33-1.66-11-.95-3.7 1.28-7.03 3.88-11.09 3.82-3.95.08-7.69 1.42-11.47 2.33-2.33.72-4.65 1.43-6.98 2-2.11.58-4.21 1.14-6.3 1.67-.16-1.9-.2-3.81-.42-5.68-1.98-1.81-4.89-1.82-7.19-3.03 2.03-1.88 4.51-3.51 5.12-6.42-4.46-.02-8.97.3-13.31-.86-.91-.92-1.8-1.83-2.66-2.72.99-2.28 1.92-4.59 2.53-7 .65-.7 1.33-1.39 2.04-2.07 5.27-.8 10.38-2.39 15.65-3.23 5.19-.95 10.47-1.31 15.67-2.27 4.7-.99 8.19-4.7 12.73-6.14 2.51-.81 5.2-1.52 7.08-3.56-1.17-.75-2.27-1.54-3.3-2.37-.19-3-.05-6.04-.82-8.96 1.19-2.46 1.86-5.12 1.33-7.84l.42-1.77c1.04-.09 2.11-.17 3.23-.25 12.61-4.5 26.24-4.76 39.13-8.27 4.14-1.15 8.34-2.14 12.51-3.26 6.5-1.71 13.37-.58 19.66 1.48l1.89.31c2 1.25 3.99 2.56 6 3.85 4.89-.12 10.02-.31 14.5 2.06 6.19 2.98 12.43 5.87 18.64 8.85l1.76.27c1.01.54 2.04 1.11 3.08 1.7 5.57 1.48 11.34 1.24 17.06 1.19 1.57-2.38 3.26-4.69 4.82-7.09-6.87-.08-13.59 1.52-20.15 3.35l-1.2-2.48c1-2.2 2.61-3.98 5.18-4.25.68-2.36.78-4.83.88-7.27 7.2-1.96 14.5-3.63 21.96-4.3 6.56-.48 11.43-5.44 17.4-7.63 4.2-1.57 8.05-3.95 12.23-5.6l2.35-1.82c-1.63-2.27-3.27-4.54-4.57-6.99-1.04-.41-2.07-.8-3.04-1.17-3.59-3.02-8.4-5.18-10.22-9.78.83-1.46 2.01-2.69 3.09-3.99h-2.3c-.04-1.2-.04-2.39 0-3.57 1.06-1.1 2.15-2.19 3.26-3.27 7.61-1.87 15.47-.86 23.23-1.24l-2.5-3.58c.08-.67.22-2.01.29-2.67 3.63 1.72 6.87 4.12 10.19 6.38 1.33-.06 2.69-.12 4.1-.18-1.56-2.09-3.06-4.2-4.57-6.29v-2.79zM3248.07 756.85c6.47-1.42 13.15-.78 19.73-.74.06 1.76.12 3.53.22 5.31-1.93 1.89-3.69 3.92-5.25 6.1.17 6.15 4.42 10.92 8.56 15.01 2.15 2.26 5.34 2.73 8.17 3.79 3.53 1.21 6.82 3.02 10.07 4.89 2.99 1.75 5.8 3.81 8.8 5.59 6.08 2.52 12.83 2.93 19.16 1.01 5.45-2.5 11.25-4.1 16.9-6.09 1.64-.73 3.32-1.41 5.05-2.03.96-.48 1.95-.95 2.98-1.42 4.59-1.7 9.16-3.59 14-4.56 6.38-1.83 12.23-4.96 18.08-8.06 7.5-3.37 17.15-4.45 24.16.65 3.98 2.97 8.27 5.58 12.95 7.35 3.06 1.36 2.23 4.82 2.49 7.56-6.03.74-12.12.62-18.16.77-6.38-.1-12.66 1.31-19.03 1.09-5.65.78-11.39.78-16.95 2.04-10.22 2.56-19.94 7.12-28.22 13.65-2.51 2.21-4.88 4.62-6.58 7.51-1.4 6.2-4.7 11.79-7.98 17.17-1.67 9.59-4.84 19.17-10.93 26.9-9.22 13.74-17.65 27.98-26.77 41.78-1.84-.41-2.38-2.67-4.04-3.3-1.37 2-2.28 4.28-3.79 6.17-3.75.24-2.36-5.36-3.01-7.73-2.06 1.17-3.47 3.06-4.55 5.1-1.04-.5-2.32-.53-2.96-1.47-.34-2.85-.21-5.72-.38-8.57-1.57 1.43-2.96 3.02-4.26 4.66-.63.02-1.87.05-2.49.06-.83-2.53-.97-5.13.09-7.61 1.98-.51 3.95-1.11 5.94-1.75l-.03-2.67c-1.26-.03-2.48-.05-3.65-.06-1.01 1.14-1.97 2.29-2.92 3.45-1.18-.18-2.39-.36-3.48-.51-.04-3.04-.03-6.07-.2-9.09-1.03-2.9-.8-6.01-1.03-9.01-1.48-4.58-.24-9.48-1.35-14.12.24-1.57.48-3.14.78-4.7-9.74.59-19.48-.48-29.2-.14-6.4.14-12.88.11-19.06-1.68-2.47-.13-4.92-.16-7.34-.15-3.24 1.92-6.6 4.23-10.53 3.98-3.39-.15-6.57 1.11-9.43 2.75-3.49 1.98-7.2 3.62-10.27 6.22l-1.84-.05c-.87-2.25-1-4.99-2.78-6.72-1.77-.25-3.58-.3-5.28-.43.96-3.39 4.24-5.26 5.75-8.3-2.54-2.99-6.66-.84-9.71-.06-1.96.42-3.98.61-5.91.82.78-2.57 1.53-5.25 3.16-7.44 3-2.06 6.72-2.71 10.17-3.78 6.12-1.61 12.18-3.75 18.56-4.18 7.39-3.44 14.16-8.1 21.76-11.14 1.46-3.71.26-7.61-.4-11.33-1.25-1.11-3.29-1.68-3.61-3.47-.59-2.63-1.73-5.07-3.47-7.1-3.45 4.13-8.24 6.75-11.93 10.62-.66-3.39-3.29-1.87-5.44-1.29-.38-.53-1.15-1.58-1.53-2.1-.78 0-2.34 0-3.12.01-.67-5.85 2.86-10.68 6.05-15.18 2.57-3.28 6.19-5.46 9.24-8.24-.55-1.73-1-3.47-1.39-5.21 10.04-6.84 22.38-8.84 33.88-12.08 4.12-1.19 8.24-2.45 12.41-3.57 1.17-.38 2.31-.75 3.57-1.09 5.88-1.14 11.64-2.84 17.57-3.79zM3501.48 904.45c5.17-1.24 10.35.55 15.48 1.29 4.02.87 7.95-.98 12-.81 5.98-.28 11.93 1.96 16.51 5.78 3.6 2.94 7.81 5.15 12.41 6.11 11.98-.63 24.13 1.52 36.09-.59 6.04-.13 12.01-1.17 18.06-1.28 2.96-.05 5.7-1.32 8.54-2.12 4.05-1.91 7.46-5.03 11.75-6.48 3.05-1.01 6.27.04 9.29.84 2.21 2.71 4.94 4.97 8.21 6.35.41 1.29.92 2.59 1.47 3.88-6.48 2.97-11.83 8.67-19.18 9.37-5.06.43-10.06 1.56-15.13 1.23-7.08-.39-14.08.79-21.1 1.21-6.25.9-12.85 1.03-18.49 4.16-6.69 3.7-12.58 9.21-20.27 10.78-1.72-.03-1.96 1.6-2.38 2.85 1.03 1.39 2.08 2.86 3.01 4.39 4.73 8.29 10.84 15.64 16.85 23.03 5.37 8.76 6.27 19.47 6.56 29.52.66 3.34 2.15 6.46 3.55 9.57.28.98.61 1.98 1 2.97 1.39 5.11 3.19 10.14 4.07 15.38.76 9.34 3.1 18.51 6.42 27.26-2.54-.6-5-1.5-7.25-2.73.03 1.25.09 2.5.27 3.79.42 1.66.69 3.38 1.01 5.1l-3.15 1.92c-3.07-.96-4.35-3.81-5.38-6.56-.41.43-1.23 1.3-1.64 1.74.42 3.57.65 7.18.08 10.76-1.64-.11-3.21-.12-4.74-.33-.95-.99-1.68-2.11-2.42-3.17-.09-1.8-.13-3.57-.15-5.34l-1.15-2.6c-.37.41-1.12 1.24-1.5 1.65-.21 2.52-.58 5.07-1.61 7.41-.45 1.69-2.3 1.04-3.49 1.02-1.73-2.22-2.6-4.93-3.39-7.57-3.45-2.9-6.22-6.52-6.92-11.07-2.39-1.93-5.48-3.38-6.65-6.38-.92-2.08-2-4.07-3.29-5.91l-2.5.23c-1.29-1.48-2.54-2.96-3.64-4.53-1.05-2.3-1.96-4.92-4.49-5.9-2.52-1.14-3.69-3.73-4.6-6.14-.21-.51-.62-1.53-.82-2.04-1.82-.97-3.48-2.13-4.78-3.68-.42-1.54-.83-3.06-1.22-4.56-1.53-1.18-3.31-2.1-4.4-3.67-1.15-2.21-1.2-4.75-1.45-7.15-4.39-1.41-6.72-5.53-10.06-8.35-2.14-3.48-5.15-6.42-6.67-10.24-.7-1.71-1.94-3.08-3.04-4.48l-.21-1.8c-1.19-.79-2.35-1.56-3.46-2.32-2.73-4.78-6.67-8.76-9.49-13.49-4.77-1.91-10.15-1.17-15.18-1.51-4.57-.57-9.24 1.26-13.66-.53-5.09-1.21-10.8-4.21-15.71-1.05-3.94 2.02-8.47.94-12.62 1.93-5.62.67-10.95 2.71-16.52 3.47-.88-1.41-1.43-2.96-2.2-4.37-1.39-.61-3.01-.67-4.38-1 .75-1.28 1.56-2.52 2.35-3.8-1.98-1.58-4.4-.13-6.56-.04-1.92-1.99-4.7-3.92-4.64-6.95 4.59-3.41 10.19-5.07 15.62-6.64 8.9-2.93 18.55-3.19 26.94-7.62 2.12-.94 4.26-1.88 6.43-2.8.09-2.31.08-4.67 1.03-6.82-.67-3.57-1.06-7.18-.98-10.8 7.69-1.22 15.32-3.16 23.15-3.32 4.02-.35 7.86-1.93 11.95-2.07 7.64-.57 14.94-3.04 22.46-4.38zM3158.46 997.83c4.5-2.35 9.21-4.92 14.46-4.86 3.77.06 8.04-.71 11.27 1.8 4.64 3.37 9.77 6.41 15.68 6.66.02 1.17.09 2.35.19 3.55l-2.08.04c-.07 1.47-.05 2.96-.03 4.46-4.94.92-9.89 1.68-14.84 2.37-6.71.5-13.47-.36-20.12.73-6.37.98-12.87-.29-19.18 1.01-6.73 1.19-13.67 2.27-19.76 5.51-4.67 3.24-8.19 7.8-12.29 11.67-2.3 2.51-5.33 4.17-7.69 6.59-.67 1.45 1.1 1.99 1.98 2.84 5.87 4.44 12.02 8.61 16.88 14.23.08.46.24 1.39.31 1.85.36 1.37.76 2.74 1.25 4.12 1.39 6.64-.64 13.63 1.59 20.15.56.97 1.16 1.96 1.79 2.95.11.44.32 1.32.42 1.76 1.13 4.03 2.01 8.13 3.1 12.17 1.55 8.23-.21 16.69 1.01 24.97.95 4.92.56 9.97.55 14.96-1.76-.41-3.55-.84-5.17-1.47-3.4 1.67-1.21 6.51-1.78 9.53-1.04.51-2.03 1.03-2.98 1.57-.95-.73-1.86-1.44-2.72-2.15-.3-2.14-1.08-4.17-2.75-5.58-.63 2.79-1.1 5.64-1.96 8.38-.8 1.58-2.87 1.3-4.28 1.41-2.47-3.2-2.13-7.61-2.42-11.43-.97.93-1.91 1.87-2.8 2.84-.11.96-.17 1.94-.18 2.93l-1.43 2.61h-1.99c-.87-.8-1.71-1.59-2.52-2.36-.01-1.27.02-2.53.1-3.77-1.27-.79-2.53-1.58-3.74-2.33-.73-1.01-1.46-2.02-2.11-2.99-.88-2.29-.7-5.58-3.44-6.47-2.17-.86-3.55-2.74-4.83-4.55.02-.51.05-1.54.06-2.06-.73-.84-1.42-1.66-2.08-2.48-1.25 0-2.46.01-3.64.04-.79-1.2-1.56-2.4-2.27-3.58.01-.51.03-1.54.05-2.06-1.79-2.69-4.87-4.45-5.77-7.68-.67-2.55-2.38-4.53-4.22-6.29-.13-1.59-.21-3.18-.25-4.74-1.46-2.5-2.02-5.32-1.99-8.17-3.75-4.7-7.56-9.4-12.3-13.13-3.2-5.41-8.64-9.01-13.08-13.33-8.48-.24-16.88-1.62-25.38-1.09-5.87.59-11.57-1.33-17.41-.96-3.26 1.97-6.7 4.26-10.67 4-4.46-.23-8.43 2-12.55 3.24-1.87.94-3.72 1.91-5.46 3.02-1.53-.47-2.57-1.62-3.44-2.83-1.22-2.13-4.08-1.28-6.02-1.87 2.29-3.45 6.35-5.12 8.69-8.54-.87-.81-1.7-1.53-2.51-2.26-.51.5-1.54 1.5-2.06 2-1.07.31-2.11.64-3.11.99-2.74.67-5.64 1.8-8.42.95-2.14-.86-3.7-2.64-5.43-4.02.56-1.8 1.2-3.56 1.85-5.33 2.29-4.41 7.8-4.95 11.96-6.68 5.4-1.7 10.9-3.22 16.57-3.76 4.79-.46 9.11-2.69 13.43-4.66 1.49-.47 3-.96 4.57-1.4l-.17-2.23c-1.08-1.77-2.32-3.47-2.93-5.44.6-2.28 2.19-4.12 3.42-6.08-1.44-.48-2.79-.93-4.16-1.39-.5-.77-.96-1.52-1.38-2.26-1-.54-1.96-1.09-2.88-1.62-.03-1.59-.03-3.17.02-4.73 4.64-2.43 9.95-2.69 14.99-3.87 11.49-2.55 23.28-3.95 34.53-7.57 5.51-1.74 11.43-2.27 17.14-1.18 4.31.99 8.61 2.09 12.9 3.25 4.78 1.08 9.89 1.08 14.36 3.35 5.59 2.44 10.92 5.48 16.61 7.73 3.26.87 6.76 2.1 10.06.56 11.24-3.48 22.8-5.86 34.36-8.04 4.97-.58 10.12-.95 14.76-3.08.44-.1 1.32-.31 1.76-.42zM2730.46 1056.84c4.73-1.87 9.17-5.15 14.5-4.89 3.24.17 6.91-.71 9.82 1.23 4.48 2.77 9.8 3.46 14.77 4.99.34.62 1.03 1.85 1.37 2.46l.02 1.72c-1.87.78-3.69 1.59-5.49 2.44-1.97.48-3.91 1.01-5.83 1.49-1.99 1.22-4.01 2.37-6.03 3.48-.53.26-1.6.77-2.14 1.02-7.38 1.61-14.97 1.38-22.46 1.08-11.62-2.13-23.65.16-34.51 4.43-7.96 2.26-14.42 7.56-21.5 11.55-2.57 1.58-5.56 2.68-7.36 5.21 5.55 4.92 13.44 7.12 17.81 13.38 1.09 2.71 2.25 5.41 3.36 8.14.95 3.94 1.67 7.94 2.65 11.9 1.12 5.22.59 10.98 3.45 15.72.69 1.44 1.3 2.92 1.98 4.41l.23 1.87c.55 1.04 1.15 2.08 1.79 3.12.09.46.26 1.36.34 1.81.36 1.33.7 2.68 1.1 4.05.45 1.69.87 3.42 1.41 5.12.72 5.29 1.77 10.53 2.56 15.82.85 4.05 1.89 8.07 3.03 12.06.45 1.7.86 3.42 1.39 5.14.14.45.42 1.37.55 1.83.83 2.44 1.5 4.94 1.9 7.51l-2.07.07-.44 2.66c-2.28-1.9-4.01-4.52-6.85-5.6.18 2.86.78 5.69 1.34 8.52-1.31.89-2.65 1.75-3.92 2.64-.97-.19-1.89-.4-2.76-.63-1.89-3.32-1.91-7.41-4.17-10.54-.45 4.62-.11 9.32-1.07 13.9l-2.56.18c-1.02.38-2.01.77-2.96 1.16-.39-.7-1.18-2.1-1.58-2.81-1.59-4.63-.58-9.68-2.4-14.23-2.99 4.02-1.59 9.97-5.13 13.63-1.52.22-3.05.19-4.5.08-1.35-2.31-2.11-4.89-3.24-7.27-.79.75-1.55 1.52-2.28 2.31l-2.18.01c-1.01-1.9-2.07-3.76-3.15-5.58-.68-2.13-1.4-4.23-2.13-6.3-2 .24-4.73.94-5.6-1.53-2.45-3.12-2.85-9.1-7.83-8.92-2.61-2.7-3.68-6.57-6.21-9.17-4.49-1.7-4.76-7.07-7.74-10.22-2.82-3.2-4.02-7.41-6.47-10.85-1.01-3.14-2.01-6.28-3.26-9.31-.43-1.91-2.68-1.97-4.08-2.63-.78-3.32-1.76-6.78-5.19-8.2-2.09-3.14-4.86-6-8.78-6.53-2.66 2.55-6.16 3.84-9.7 4.48-3.68 4.01-8.01 8.33-13.92 7.94-2.04 2.82-4.79 5.54-8.59 4.93-1.2-.92-2.3-1.8-3.41-2.7-.12.65-.35 1.94-.46 2.58-1.58-.01-3.12-.01-4.63 0-.51-1.03-1-2.04-1.45-3.04-1.29 0-2.56.03-3.78.06-.31-2.14-.57-4.27-.68-6.41-1.1-.62-2.19-1.24-3.22-1.83.23-3.19-.5-6.27-3-8.4-.33-2.16.54-4.89-1.49-6.37-3.54.59-7.07 1-10.59.17-8.16.06-16.18-1.65-24.34-1.23.39-1.76.87-3.48 1.37-5.2-5.1.65-10.17 1.51-15.31 1.5-.94-1.4-1.87-2.77-2.8-4.12.51-1.29 1.01-2.57 1.6-3.82 1.65-3.24 5.63-2.21 8.62-2.94 6.44-.29 12.77-1.54 19.12-2.66 2.7-2.24 6.47-1.22 9.42-2.89 1.59-.8 3.16-1.68 4.78-2.51 1.27-.77 2.54-1.58 3.84-2.36-2.98-4.86-7.13-8.8-10.33-13.47l.24-1.82c1.06-.48 2.14-.95 3.25-1.42 1.99-.68 4-1.31 6.04-1.96 2.96-.88 5.96-1.7 8.96-2.55 1.97-.71 3.96-1.4 5.98-2.05 2.62-1.11 5.27-2.16 8.01-2.99 3.76-1.36 7.56-2.68 11.15-4.5l1.8-.33c2.86-1.69 5.77-3.39 9.03-4.25 12.35-5.31 26.1-.19 38.66-4.47 7.82-.56 15.71-.17 23.27 2.08 5.25 2.42 10.98 3.49 16.65 4.52 6.67.97 13.34-.51 19.99-1.01 5.92-1.25 11.99-.5 17.99-.8 8.78-1.29 17.76-.87 26.43-3.09z" fill="#e1e1e1"/>
</svg>