<svg width="0" height="0" display="none" xmlns="http://www.w3.org/2000/svg"> 
              
  <!-- icons -->
 
  <symbol id="icon-code" viewBox="0 0 24 24" fill="none">
  <path d="M16.5 7.5L13.5 7.5" stroke="currentColor" stroke-width="1.5" stroke-linecap="round"/>
  <path d="M22 20H14M2 20H10" stroke="currentColor" stroke-width="1.5" stroke-linecap="round"/>
  <path d="M12 18V15" stroke="currentColor" stroke-width="1.5" stroke-linecap="round"/>
  <circle cx="12" cy="20" r="2" stroke="currentColor" stroke-width="1.5"/>
  <path d="M5 5.21734C5 4.64369 5 4.35687 5.04855 4.11795C5.26225 3.0662 6.14822 2.24352 7.28087 2.04508C7.53817 2 7.84705 2 8.46482 2C8.7355 2 8.87083 2 9.0009 2.01129C9.56166 2.05999 10.0936 2.26457 10.5272 2.59833C10.6277 2.67575 10.7234 2.76461 10.9148 2.94234L11.3 3.3C11.871 3.83026 12.1566 4.09538 12.4985 4.27203C12.6863 4.36906 12.8855 4.44569 13.0922 4.5004C13.4685 4.6 13.8723 4.6 14.6799 4.6H14.9415C16.7841 4.6 17.7055 4.6 18.3043 5.10015C18.3594 5.14616 18.4118 5.19484 18.4614 5.24599C18.8999 5.69877 18.9814 6.35005 18.9965 7.5M18.9939 11.1C18.9688 12.7117 18.8401 13.6255 18.1799 14.2385C17.3598 15 16.0399 15 13.4 15H10.6C7.96013 15 6.6402 15 5.8201 14.2385C5 13.477 5 12.2513 5 9.8V8.5" stroke="currentColor" stroke-width="1.5" stroke-linecap="round"/>
  </symbol>

  <symbol id="icon-sound" viewBox="0 0 24 24" fill="none" >
  <path d="M21 7.16229C21 6.11871 21 5.59692 20.7169 5.20409C20.4337 4.81126 19.9387 4.64625 18.9487 4.31624L17.7839 3.92799C16.4168 3.47229 15.7333 3.24444 15.0451 3.3366C14.3569 3.42876 13.7574 3.82843 12.5583 4.62778L11.176 5.54937C10.2399 6.1734 9.77191 6.48541 9.24685 6.60952C9.05401 6.65511 8.85714 6.68147 8.6591 6.68823C8.11989 6.70665 7.58626 6.52877 6.51901 6.17302C5.12109 5.70705 4.42213 5.47406 3.89029 5.71066C3.70147 5.79466 3.53204 5.91678 3.39264 6.06935C3 6.49907 3 7.23584 3 8.70938V12.7736M21 11V15.2907C21 16.7642 21 17.501 20.6074 17.9307C20.468 18.0833 20.2985 18.2054 20.1097 18.2894C19.5779 18.526 18.8789 18.293 17.481 17.827C16.4137 17.4713 15.8801 17.2934 15.3409 17.3118C15.1429 17.3186 14.946 17.3449 14.7532 17.3905C14.2281 17.5146 13.7601 17.8266 12.824 18.4507L11.4417 19.3722C10.2426 20.1716 9.64311 20.5713 8.95493 20.6634C8.26674 20.7556 7.58319 20.5277 6.21609 20.072L5.05132 19.6838C4.06129 19.3538 3.56627 19.1888 3.28314 18.7959C3.01507 18.424 3.0008 17.9365 3.00004 17" stroke="currentColor" stroke-width="1.5" stroke-linecap="round"/>
  <path d="M15 3.5V7M15 17V11" stroke="currentColor" stroke-width="1.5" stroke-linecap="round"/>
  <path d="M9 20.5V17M9 7V13" stroke="currentColor" stroke-width="1.5" stroke-linecap="round"/>
  </symbol>

  <symbol id="p-play" viewBox="0 0 24 24" fill="none">
  <path transform="translate(1,0)" d="M3 12L3 18.9671C3 21.2763 5.53435 22.736 7.59662 21.6145L10.7996 19.8727M3 8L3 5.0329C3 2.72368 5.53435 1.26402 7.59661 2.38548L20.4086 9.35258C22.5305 10.5065 22.5305 13.4935 20.4086 14.6474L14.0026 18.131" stroke="currentColor" stroke-width="1.5" stroke-linecap="round"/>
  </symbol>

  <symbol id="p-stop" viewBox="0 0 24 24" fill="none">
  <path d="M22 12C22 16.714 22 19.0711 20.5355 20.5355C19.0711 22 16.714 22 12 22C7.28595 22 4.92893 22 3.46447 20.5355C2 19.0711 2 16.714 2 12C2 7.28595 2 4.92893 3.46447 3.46447C4.92893 2 7.28595 2 12 2C16.714 2 19.0711 2 20.5355 3.46447C21.5093 4.43821 21.8356 5.80655 21.9449 8" stroke="currentColor" stroke-width="1.5" stroke-linecap="round"/>
  </symbol> 

  <symbol id="icon-prev" viewBox="0 0 24 24" fill="none" >
  <path d="M22 11L22 18.9671C22 21.2763 19.8658 22.736 18.1292 21.6145L7.34016 14.6474C5.55328 13.4935 5.55328 10.5065 7.34015 9.35258L18.1292 2.38548C19.8658 1.26402 22 2.72368 22 5.03289V7" stroke="currentColor" stroke-width="1.5" stroke-linecap="round"/><path d="M2 5V12M2 19V16" stroke="currentColor" stroke-width="1.5" stroke-linecap="round"/>
  </symbol>

  <symbol id="icon-next" viewBox="0 0 24 24" fill="none" >
  <path d="M2 11L2 18.9671C2 21.2763 4.13419 22.736 5.87083 21.6145L16.6598 14.6474C18.4467 13.4935 18.4467 10.5065 16.6598 9.35258L5.87084 2.38548C4.13419 1.26402 2 2.72368 2 5.03289V7" stroke="currentColor" stroke-width="1.5" stroke-linecap="round"/><path d="M22 5V12M22 16V19" stroke="currentColor" stroke-width="1.5" stroke-linecap="round"/>
  </symbol>

  <symbol id="icon-time" viewBox="0 0 24 24" fill="none" >
  <path d="M12 8V12L14.5 14.5" stroke="currentColor" stroke-width="1.5" stroke-linecap="round" stroke-linejoin="round"/>
  <path d="M22 12C22 16.714 22 19.0711 20.5355 20.5355C19.0711 22 16.714 22 12 22C7.28595 22 4.92893 22 3.46447 20.5355C2 19.0711 2 16.714 2 12C2 7.28595 2 4.92893 3.46447 3.46447C4.92893 2 7.28595 2 12 2C16.714 2 19.0711 2 20.5355 3.46447C21.5093 4.43821 21.8356 5.80655 21.9449 8" stroke="currentColor" stroke-width="1.5" stroke-linecap="round"/>
  </symbol>

</svg>