<svg xmlns="http://www.w3.org/2000/svg" viewBox="0 0 750 500">
  <g><g fill="#EE2A7B"><path d="M528.055 284.04l-.129.13v77.112l.129.132 1.338-1.341v-74.696zM532.159 288.145v69.165l1.469-1.466v-66.234zM536.391 292.374v60.705l1.463-1.469v-57.768zM540.624 296.606v52.238l1.464-1.467v-49.302zM544.854 300.838v43.775l1.468-1.466v-40.841zM549.088 305.07v35.313l1.465-1.468v-32.379zM553.317 309.3v26.851l1.469-1.466v-23.916zM557.549 313.533v18.385l1.467-1.464v-15.453zM561.782 317.765v9.92l1.469-1.465v-6.987zM566.012 321.998v1.456l.73-.726z"/></g><g fill="#27AAE1"><path d="M192.953 258.946l.083.083h49.226l.084-.083-.856-.853h-47.683zM195.573 256.326h44.153l-.936-.937h-42.281zM198.273 253.625h38.752l-.937-.935h-36.878zM200.975 250.923h33.346l-.936-.935h-31.473zM203.676 248.222h27.945l-.935-.937h-26.073zM206.378 245.52h22.542l-.937-.936h-20.669zM209.078 242.819h17.141l-.936-.937h-15.267zM211.78 240.118h11.737l-.935-.936h-9.864zM214.481 237.416h6.333l-.935-.937h-4.46zM217.184 234.716h.929l-.463-.466z"/></g><path stroke="#F9C332" stroke-width="8" stroke-linecap="round" stroke-linejoin="round" stroke-miterlimit="10" fill="none" d="M361.154 192.996l51.643-51.642"/><path stroke="#EE2A7B" stroke-width="2" stroke-linecap="round" stroke-linejoin="round" stroke-miterlimit="10" fill="none" d="M201.337 389.908l34.818-34.818 34.818 34.818-34.818 34.818z"/><path stroke="#2B3990" stroke-width="2" stroke-linecap="round" stroke-linejoin="round" stroke-miterlimit="10" fill="none" d="M215.353 413.89l20.801-20.801 20.801 20.801-20.801 20.801zM521.034 217.593l32.913-32.913 32.913 32.913-32.913 32.913z"/><path stroke="#F9C332" stroke-width="2" stroke-linecap="round" stroke-linejoin="round" stroke-miterlimit="10" fill="none" d="M451.806 86.776l-34.818 34.818-34.818-34.818 34.818-34.818z"/><path stroke="#00BDC2" stroke-width="2" stroke-linecap="round" stroke-linejoin="round" stroke-miterlimit="10" fill="none" d="M437.784 62.786l-20.801 20.801-20.801-20.801 20.801-20.801z"/><path d="M317.683 284.308c0 14.732-11.943 26.683-26.684 26.683-14.733 0-26.677-11.951-26.677-26.683 0-14.738 11.943-26.685 26.677-26.685 14.74-.001 26.684 11.946 26.684 26.685z" fill="#262262"/><path d="M550.685 199.621c0 9.266-7.512 16.782-16.783 16.782-9.267 0-16.778-7.517-16.778-16.782 0-9.27 7.512-16.784 16.778-16.784 9.271-.001 16.783 7.514 16.783 16.784z" fill="#00BDC2"/><path d="M211.665 205.786c0 5.701-4.622 10.326-10.326 10.326-5.702 0-10.323-4.625-10.323-10.326 0-5.704 4.621-10.327 10.323-10.327 5.704 0 10.326 4.624 10.326 10.327z" fill="#F9C332"/><g fill="#00BDC2"><path d="M463.212 324.667l-9.984 9.852h9.984zM463.212 312.876l-9.984 9.853h9.984zM463.212 301.085l-9.984 9.854h9.984zM463.212 289.296l-9.984 9.851h9.984zM451.171 324.667l-9.984 9.852h9.984zM451.171 312.876l-9.984 9.853h9.984zM451.171 301.085l-9.984 9.854h9.984zM439.13 324.667l-9.984 9.852h9.984zM439.13 312.876l-9.984 9.853h9.984zM427.089 324.667l-9.984 9.852h9.984z"/></g><g stroke="#EE2A7B" stroke-width="2.769" stroke-linecap="round" stroke-linejoin="round" stroke-miterlimit="10" fill="none"><path d="M374.569 192.993c0 31.73-25.721 57.451-57.448 57.451-31.728 0-57.448-25.721-57.448-57.451 0-31.725 25.721-57.445 57.448-57.445 31.728-.001 57.448 25.72 57.448 57.445zM367.127 192.993c0 27.619-22.389 50.008-50.006 50.008-27.616 0-50.005-22.389-50.005-50.008 0-27.615 22.389-50.002 50.005-50.002 27.617 0 50.006 22.387 50.006 50.002zM359.684 192.993c0 23.508-19.056 42.564-42.563 42.564s-42.563-19.057-42.563-42.564c0-23.504 19.056-42.56 42.563-42.56 23.507.001 42.563 19.056 42.563 42.56zM352.24 192.992c0 19.397-15.724 35.122-35.119 35.122-19.397 0-35.119-15.725-35.119-35.122 0-19.393 15.723-35.116 35.119-35.116s35.119 15.724 35.119 35.116zM344.797 192.993c0 15.286-12.391 27.679-27.676 27.679-15.285 0-27.676-12.393-27.676-27.679 0-15.283 12.391-27.674 27.676-27.674 15.285 0 27.676 12.391 27.676 27.674zM337.354 192.993c0 11.176-9.058 20.236-20.232 20.236s-20.233-9.06-20.233-20.236c0-11.172 9.058-20.23 20.233-20.23s20.232 9.057 20.232 20.23zM329.911 192.993c0 7.064-5.726 12.793-12.79 12.793-7.065 0-12.79-5.729-12.79-12.793 0-7.062 5.726-12.787 12.79-12.787 7.065 0 12.79 5.725 12.79 12.787z"/></g><g stroke="#262262" stroke-width="1.2" stroke-linecap="round" stroke-linejoin="round" stroke-miterlimit="10" fill="none"><path d="M488.111 334.518c0 13.753-11.147 24.9-24.898 24.9-13.752 0-24.9-11.147-24.9-24.9 0-13.75 11.148-24.898 24.9-24.898 13.751 0 24.898 11.148 24.898 24.898zM484.886 334.518c0 11.972-9.703 21.675-21.673 21.675-11.97 0-21.674-9.703-21.674-21.675 0-11.968 9.704-21.671 21.674-21.671 11.97 0 21.673 9.703 21.673 21.671zM481.66 334.518c0 10.189-8.26 18.449-18.447 18.449-10.189 0-18.448-8.26-18.448-18.449 0-10.187 8.26-18.445 18.448-18.445 10.187-.001 18.447 8.258 18.447 18.445zM478.434 334.518c0 8.407-6.815 15.223-15.221 15.223-8.408 0-15.223-6.815-15.223-15.223 0-8.406 6.814-15.221 15.223-15.221 8.406 0 15.221 6.814 15.221 15.221zM475.208 334.518c0 6.626-5.37 11.997-11.995 11.997s-11.996-5.371-11.996-11.997c0-6.623 5.371-11.994 11.996-11.994s11.995 5.371 11.995 11.994zM471.981 334.518c0 4.844-3.926 8.77-8.768 8.77-4.844 0-8.771-3.927-8.771-8.77 0-4.842 3.927-8.768 8.771-8.768 4.843 0 8.768 3.926 8.768 8.768zM468.756 334.518c0 3.063-2.481 5.545-5.543 5.545-3.063 0-5.544-2.482-5.544-5.545 0-3.061 2.482-5.542 5.544-5.542 3.061 0 5.543 2.481 5.543 5.542z"/></g><g stroke="#00BDC2" stroke-width="1.128" stroke-linecap="round" stroke-linejoin="round" stroke-miterlimit="10" fill="none"><path d="M384.55 410.451c0 10.354-8.393 18.747-18.745 18.747-10.354 0-18.747-8.393-18.747-18.747 0-10.352 8.393-18.744 18.747-18.744 10.352 0 18.745 8.393 18.745 18.744zM382.121 410.451c0 9.014-7.305 16.318-16.316 16.318-9.012 0-16.318-7.305-16.318-16.318 0-9.01 7.307-16.315 16.318-16.315 9.011 0 16.316 7.305 16.316 16.315zM379.692 410.451c0 7.672-6.218 13.89-13.888 13.89-7.671 0-13.89-6.218-13.89-13.89 0-7.669 6.219-13.887 13.89-13.887 7.671.001 13.888 6.218 13.888 13.887zM377.264 410.451c0 6.33-5.131 11.461-11.459 11.461-6.33 0-11.461-5.131-11.461-11.461 0-6.328 5.131-11.459 11.461-11.459 6.328 0 11.459 5.131 11.459 11.459zM374.835 410.451c0 4.988-4.043 9.032-9.03 9.032-4.988 0-9.032-4.044-9.032-9.032 0-4.986 4.044-9.029 9.032-9.029 4.987 0 9.03 4.043 9.03 9.029zM372.406 410.451c0 3.647-2.955 6.603-6.602 6.603-3.646 0-6.604-2.956-6.604-6.603 0-3.646 2.957-6.601 6.604-6.601 3.647.001 6.602 2.956 6.602 6.601zM369.978 410.451c0 2.306-1.868 4.175-4.173 4.175-2.306 0-4.175-1.869-4.175-4.175 0-2.304 1.869-4.172 4.175-4.172 2.304 0 4.173 1.868 4.173 4.172z"/></g><path stroke="#00AEEF" stroke-width="7" stroke-linecap="round" stroke-linejoin="round" stroke-miterlimit="10" fill="none" d="M268.976 361.274l261.058-261.059"/><path stroke="#EE2A7B" stroke-linecap="round" stroke-linejoin="round" stroke-miterlimit="10" fill="none" d="M305.135 346.334l270.061-270.315"/><path stroke="#00BDC2" stroke-linecap="round" stroke-linejoin="round" stroke-miterlimit="10" fill="none" d="M391.959 199.005l57.417-57.471"/><path stroke="#EE2A7B" stroke-linecap="round" stroke-linejoin="round" stroke-miterlimit="10" fill="none" d="M229.945 323.964l212.645-212.845"/><path stroke="#262262" stroke-linecap="round" stroke-linejoin="round" stroke-miterlimit="10" fill="none" d="M246.273 451.496l233.954-233.954"/><path stroke="#00BDC2" stroke-width="4.319" stroke-miterlimit="10" fill="none" d="M443.735 133.104l10.417-.644.645-10.417 10.417-.645.645-10.419 10.416-.642.648-10.421 10.425-.651.65-10.424"/><path stroke="#F9C332" stroke-width="4.319" stroke-miterlimit="10" fill="none" d="M179.379 337.491l10.417-.643.644-10.418 10.417-.644.646-10.419 10.416-.642.647-10.421 10.424-.652.652-10.424"/><path stroke="#262262" stroke-width="4.319" stroke-miterlimit="10" fill="none" d="M482.851 281.863l8.353 1.42-1.421-8.352 8.35 1.423-1.42-8.353 8.353 1.42-1.419-8.355 8.36 1.414-1.413-8.36"/><path stroke="#00AEEF" stroke-width="7" stroke-linecap="round" stroke-linejoin="round" stroke-miterlimit="10" fill="none" d="M292.993 379.071l261.059-261.059"/><path stroke="#EE2A7B" stroke-width="8" stroke-linecap="round" stroke-linejoin="round" stroke-miterlimit="10" fill="none" d="M350.702 370.793l72.548-72.548"/><path fill="#262262" d="M270.333 109.373l-4.094-4.095 4.094-4.094-5.363-5.364-4.095 4.094-4.095-4.094-5.363 5.364 4.094 4.094-4.094 4.095 5.363 5.364 4.095-4.094 4.095 4.094z"/><path fill="#00BDC2" d="M539.492 397.182l-4.094-4.094 4.094-4.094-5.363-5.365-4.095 4.095-4.095-4.095-5.363 5.365 4.094 4.094-4.094 4.094 5.363 5.365 4.095-4.095 4.095 4.095z"/><path fill="#F9C332" d="M399.634 363.996l-2.721-2.722 2.721-2.721-3.565-3.565-2.721 2.721-2.722-2.721-3.564 3.565 2.72 2.721-2.72 2.722 3.564 3.564 2.722-2.72 2.721 2.72z"/><path d="M515.286 163.371c0 4.315-3.498 7.814-7.814 7.814-4.315 0-7.813-3.499-7.813-7.814 0-4.316 3.498-7.815 7.813-7.815 4.316 0 7.814 3.499 7.814 7.815z" fill="#262262"/><path d="M321.668 70.611c0 4.316-3.498 7.814-7.814 7.814-4.315 0-7.814-3.499-7.814-7.814 0-4.316 3.498-7.815 7.814-7.815s7.814 3.499 7.814 7.815z" fill="#EE2A7B"/><g fill="#F9C332"><path d="M321.656 102.028c0 .825-.668 1.493-1.492 1.493s-1.492-.668-1.492-1.493.668-1.493 1.492-1.493 1.492.668 1.492 1.493zM327.229 102.028c0 .825-.668 1.493-1.492 1.493s-1.492-.668-1.492-1.493.668-1.493 1.492-1.493 1.492.668 1.492 1.493zM332.801 102.028c0 .825-.668 1.493-1.492 1.493s-1.492-.668-1.492-1.493.668-1.493 1.492-1.493 1.492.668 1.492 1.493zM338.373 102.028c0 .825-.668 1.493-1.492 1.493s-1.492-.668-1.492-1.493.668-1.493 1.492-1.493 1.492.668 1.492 1.493zM343.945 102.028c0 .825-.668 1.493-1.492 1.493s-1.492-.668-1.492-1.493.668-1.493 1.492-1.493 1.492.668 1.492 1.493zM349.518 102.028c0 .825-.668 1.493-1.492 1.493s-1.492-.668-1.492-1.493.668-1.493 1.492-1.493 1.492.668 1.492 1.493zM355.09 102.028c0 .825-.668 1.493-1.492 1.493s-1.492-.668-1.492-1.493.668-1.493 1.492-1.493 1.492.668 1.492 1.493zM360.662 102.028c0 .825-.668 1.493-1.492 1.493s-1.492-.668-1.492-1.493.668-1.493 1.492-1.493 1.492.668 1.492 1.493zM366.234 102.028c0 .825-.668 1.493-1.492 1.493s-1.492-.668-1.492-1.493.668-1.493 1.492-1.493 1.492.668 1.492 1.493zM371.807 102.028c0 .825-.668 1.493-1.492 1.493s-1.492-.668-1.492-1.493.668-1.493 1.492-1.493 1.492.668 1.492 1.493zM377.379 102.028c0 .825-.668 1.493-1.492 1.493s-1.492-.668-1.492-1.493.668-1.493 1.492-1.493 1.492.668 1.492 1.493zM321.656 106.771c0 .825-.668 1.493-1.492 1.493s-1.492-.668-1.492-1.493c0-.825.668-1.493 1.492-1.493s1.492.668 1.492 1.493z"/><circle cx="325.736" cy="106.771" r="1.492"/><circle cx="331.309" cy="106.771" r="1.492"/><circle cx="336.881" cy="106.771" r="1.492"/><circle cx="342.453" cy="106.771" r="1.492"/><circle cx="348.025" cy="106.771" r="1.492"/><circle cx="353.598" cy="106.771" r="1.492"/><circle cx="359.17" cy="106.771" r="1.492"/><circle cx="364.742" cy="106.771" r="1.492"/><circle cx="370.314" cy="106.771" r="1.492"/><circle cx="375.887" cy="106.771" r="1.492"/><path d="M321.656 111.514c0 .825-.668 1.493-1.492 1.493s-1.492-.668-1.492-1.493.668-1.493 1.492-1.493 1.492.668 1.492 1.493zM327.229 111.514c0 .825-.668 1.493-1.492 1.493s-1.492-.668-1.492-1.493.668-1.493 1.492-1.493 1.492.668 1.492 1.493zM332.801 111.514c0 .825-.668 1.493-1.492 1.493s-1.492-.668-1.492-1.493.668-1.493 1.492-1.493 1.492.668 1.492 1.493zM338.373 111.514c0 .825-.668 1.493-1.492 1.493s-1.492-.668-1.492-1.493.668-1.493 1.492-1.493 1.492.668 1.492 1.493zM343.945 111.514c0 .825-.668 1.493-1.492 1.493s-1.492-.668-1.492-1.493.668-1.493 1.492-1.493 1.492.668 1.492 1.493zM349.518 111.514c0 .825-.668 1.493-1.492 1.493s-1.492-.668-1.492-1.493.668-1.493 1.492-1.493 1.492.668 1.492 1.493zM355.09 111.514c0 .825-.668 1.493-1.492 1.493s-1.492-.668-1.492-1.493.668-1.493 1.492-1.493 1.492.668 1.492 1.493zM360.662 111.514c0 .825-.668 1.493-1.492 1.493s-1.492-.668-1.492-1.493.668-1.493 1.492-1.493 1.492.668 1.492 1.493zM366.234 111.514c0 .825-.668 1.493-1.492 1.493s-1.492-.668-1.492-1.493.668-1.493 1.492-1.493 1.492.668 1.492 1.493zM371.807 111.514c0 .825-.668 1.493-1.492 1.493s-1.492-.668-1.492-1.493.668-1.493 1.492-1.493 1.492.668 1.492 1.493zM377.379 111.514c0 .825-.668 1.493-1.492 1.493s-1.492-.668-1.492-1.493.668-1.493 1.492-1.493 1.492.668 1.492 1.493zM321.656 116.257c0 .825-.668 1.493-1.492 1.493s-1.492-.668-1.492-1.493.668-1.493 1.492-1.493c.824.001 1.492.669 1.492 1.493z"/><circle cx="325.736" cy="116.257" r="1.492"/><circle cx="331.309" cy="116.257" r="1.492"/><circle cx="336.881" cy="116.257" r="1.492"/><circle cx="342.453" cy="116.257" r="1.492"/><circle cx="348.025" cy="116.257" r="1.492"/><circle cx="353.598" cy="116.257" r="1.492"/><circle cx="359.17" cy="116.257" r="1.492"/><circle cx="364.742" cy="116.257" r="1.492"/><circle cx="370.314" cy="116.257" r="1.492"/><circle cx="375.887" cy="116.257" r="1.492"/><path d="M321.656 121.001c0 .825-.668 1.493-1.492 1.493s-1.492-.668-1.492-1.493c0-.825.668-1.493 1.492-1.493s1.492.668 1.492 1.493z"/><circle cx="325.736" cy="121.001" r="1.492"/><circle cx="331.309" cy="121.001" r="1.492"/><circle cx="336.881" cy="121.001" r="1.492"/><circle cx="342.453" cy="121.001" r="1.492"/><circle cx="348.025" cy="121.001" r="1.492"/><circle cx="353.598" cy="121.001" r="1.492"/><circle cx="359.17" cy="121.001" r="1.492"/><circle cx="364.742" cy="121.001" r="1.492"/><circle cx="370.314" cy="121.001" r="1.492"/><circle cx="375.887" cy="121.001" r="1.492"/><path d="M321.656 125.744c0 .825-.668 1.493-1.492 1.493s-1.492-.668-1.492-1.493c0-.825.668-1.493 1.492-1.493s1.492.668 1.492 1.493zM327.229 125.744c0 .825-.668 1.493-1.492 1.493s-1.492-.668-1.492-1.493c0-.825.668-1.493 1.492-1.493s1.492.668 1.492 1.493zM332.801 125.744c0 .825-.668 1.493-1.492 1.493s-1.492-.668-1.492-1.493c0-.825.668-1.493 1.492-1.493s1.492.668 1.492 1.493zM338.373 125.744c0 .825-.668 1.493-1.492 1.493s-1.492-.668-1.492-1.493c0-.825.668-1.493 1.492-1.493s1.492.668 1.492 1.493zM343.945 125.744c0 .825-.668 1.493-1.492 1.493s-1.492-.668-1.492-1.493c0-.825.668-1.493 1.492-1.493s1.492.668 1.492 1.493zM349.518 125.744c0 .825-.668 1.493-1.492 1.493s-1.492-.668-1.492-1.493c0-.825.668-1.493 1.492-1.493s1.492.668 1.492 1.493zM355.09 125.744c0 .825-.668 1.493-1.492 1.493s-1.492-.668-1.492-1.493c0-.825.668-1.493 1.492-1.493s1.492.668 1.492 1.493zM360.662 125.744c0 .825-.668 1.493-1.492 1.493s-1.492-.668-1.492-1.493c0-.825.668-1.493 1.492-1.493s1.492.668 1.492 1.493zM366.234 125.744c0 .825-.668 1.493-1.492 1.493s-1.492-.668-1.492-1.493c0-.825.668-1.493 1.492-1.493s1.492.668 1.492 1.493zM371.807 125.744c0 .825-.668 1.493-1.492 1.493s-1.492-.668-1.492-1.493c0-.825.668-1.493 1.492-1.493s1.492.668 1.492 1.493zM377.379 125.744c0 .825-.668 1.493-1.492 1.493s-1.492-.668-1.492-1.493c0-.825.668-1.493 1.492-1.493s1.492.668 1.492 1.493zM321.656 130.487c0 .825-.668 1.493-1.492 1.493s-1.492-.668-1.492-1.493c0-.825.668-1.493 1.492-1.493s1.492.668 1.492 1.493z"/><circle cx="325.736" cy="130.487" r="1.492"/><circle cx="331.309" cy="130.487" r="1.492"/><circle cx="336.881" cy="130.487" r="1.492"/><circle cx="342.453" cy="130.487" r="1.492"/><circle cx="348.025" cy="130.487" r="1.492"/><circle cx="353.598" cy="130.487" r="1.492"/><circle cx="359.17" cy="130.487" r="1.492"/><circle cx="364.742" cy="130.487" r="1.492"/><circle cx="370.314" cy="130.487" r="1.492"/><circle cx="375.887" cy="130.487" r="1.492"/><path d="M321.656 135.23c0 .825-.668 1.493-1.492 1.493s-1.492-.668-1.492-1.493c0-.825.668-1.493 1.492-1.493s1.492.668 1.492 1.493z"/><circle cx="325.736" cy="135.23" r="1.492"/><circle cx="331.309" cy="135.23" r="1.492"/><circle cx="336.881" cy="135.23" r="1.492"/><circle cx="342.453" cy="135.23" r="1.492"/><circle cx="348.025" cy="135.23" r="1.492"/><circle cx="353.598" cy="135.23" r="1.492"/><circle cx="359.17" cy="135.23" r="1.492"/><circle cx="364.742" cy="135.23" r="1.492"/><circle cx="370.314" cy="135.23" r="1.492"/><circle cx="375.887" cy="135.23" r="1.492"/><path d="M321.656 139.973c0 .825-.668 1.493-1.492 1.493s-1.492-.668-1.492-1.493c0-.825.668-1.493 1.492-1.493s1.492.668 1.492 1.493zM327.229 139.973c0 .825-.668 1.493-1.492 1.493s-1.492-.668-1.492-1.493c0-.825.668-1.493 1.492-1.493s1.492.668 1.492 1.493zM332.801 139.973c0 .825-.668 1.493-1.492 1.493s-1.492-.668-1.492-1.493c0-.825.668-1.493 1.492-1.493s1.492.668 1.492 1.493zM338.373 139.973c0 .825-.668 1.493-1.492 1.493s-1.492-.668-1.492-1.493c0-.825.668-1.493 1.492-1.493s1.492.668 1.492 1.493zM343.945 139.973c0 .825-.668 1.493-1.492 1.493s-1.492-.668-1.492-1.493c0-.825.668-1.493 1.492-1.493s1.492.668 1.492 1.493zM349.518 139.973c0 .825-.668 1.493-1.492 1.493s-1.492-.668-1.492-1.493c0-.825.668-1.493 1.492-1.493s1.492.668 1.492 1.493zM355.09 139.973c0 .825-.668 1.493-1.492 1.493s-1.492-.668-1.492-1.493c0-.825.668-1.493 1.492-1.493s1.492.668 1.492 1.493zM360.662 139.973c0 .825-.668 1.493-1.492 1.493s-1.492-.668-1.492-1.493c0-.825.668-1.493 1.492-1.493s1.492.668 1.492 1.493zM366.234 139.973c0 .825-.668 1.493-1.492 1.493s-1.492-.668-1.492-1.493c0-.825.668-1.493 1.492-1.493s1.492.668 1.492 1.493zM371.807 139.973c0 .825-.668 1.493-1.492 1.493s-1.492-.668-1.492-1.493c0-.825.668-1.493 1.492-1.493s1.492.668 1.492 1.493zM377.379 139.973c0 .825-.668 1.493-1.492 1.493s-1.492-.668-1.492-1.493c0-.825.668-1.493 1.492-1.493s1.492.668 1.492 1.493zM321.656 144.716c0 .825-.668 1.493-1.492 1.493s-1.492-.668-1.492-1.493c0-.825.668-1.493 1.492-1.493.824.001 1.492.669 1.492 1.493z"/><circle cx="325.736" cy="144.716" r="1.492"/><circle cx="331.309" cy="144.716" r="1.492"/><circle cx="336.881" cy="144.716" r="1.492"/><circle cx="342.453" cy="144.716" r="1.492"/><circle cx="348.025" cy="144.716" r="1.492"/><circle cx="353.598" cy="144.716" r="1.492"/><circle cx="359.17" cy="144.716" r="1.492"/><circle cx="364.742" cy="144.716" r="1.492"/><circle cx="370.314" cy="144.716" r="1.492"/><circle cx="375.887" cy="144.716" r="1.492"/><path d="M321.656 149.46c0 .825-.668 1.493-1.492 1.493s-1.492-.668-1.492-1.493c0-.825.668-1.493 1.492-1.493s1.492.668 1.492 1.493zM327.229 149.46c0 .825-.668 1.493-1.492 1.493s-1.492-.668-1.492-1.493c0-.825.668-1.493 1.492-1.493s1.492.668 1.492 1.493zM332.801 149.46c0 .825-.668 1.493-1.492 1.493s-1.492-.668-1.492-1.493c0-.825.668-1.493 1.492-1.493s1.492.668 1.492 1.493zM338.373 149.46c0 .825-.668 1.493-1.492 1.493s-1.492-.668-1.492-1.493c0-.825.668-1.493 1.492-1.493s1.492.668 1.492 1.493zM343.945 149.46c0 .825-.668 1.493-1.492 1.493s-1.492-.668-1.492-1.493c0-.825.668-1.493 1.492-1.493s1.492.668 1.492 1.493zM349.518 149.46c0 .825-.668 1.493-1.492 1.493s-1.492-.668-1.492-1.493c0-.825.668-1.493 1.492-1.493s1.492.668 1.492 1.493zM355.09 149.46c0 .825-.668 1.493-1.492 1.493s-1.492-.668-1.492-1.493c0-.825.668-1.493 1.492-1.493s1.492.668 1.492 1.493zM360.662 149.46c0 .825-.668 1.493-1.492 1.493s-1.492-.668-1.492-1.493c0-.825.668-1.493 1.492-1.493s1.492.668 1.492 1.493zM366.234 149.46c0 .825-.668 1.493-1.492 1.493s-1.492-.668-1.492-1.493c0-.825.668-1.493 1.492-1.493s1.492.668 1.492 1.493zM371.807 149.46c0 .825-.668 1.493-1.492 1.493s-1.492-.668-1.492-1.493c0-.825.668-1.493 1.492-1.493s1.492.668 1.492 1.493zM377.379 149.46c0 .825-.668 1.493-1.492 1.493s-1.492-.668-1.492-1.493c0-.825.668-1.493 1.492-1.493s1.492.668 1.492 1.493zM321.656 154.203c0 .825-.668 1.493-1.492 1.493s-1.492-.668-1.492-1.493c0-.825.668-1.493 1.492-1.493s1.492.668 1.492 1.493zM327.229 154.203c0 .825-.668 1.493-1.492 1.493s-1.492-.668-1.492-1.493c0-.825.668-1.493 1.492-1.493s1.492.668 1.492 1.493zM332.801 154.203c0 .825-.668 1.493-1.492 1.493s-1.492-.668-1.492-1.493c0-.825.668-1.493 1.492-1.493s1.492.668 1.492 1.493zM338.373 154.203c0 .825-.668 1.493-1.492 1.493s-1.492-.668-1.492-1.493c0-.825.668-1.493 1.492-1.493s1.492.668 1.492 1.493zM343.945 154.203c0 .825-.668 1.493-1.492 1.493s-1.492-.668-1.492-1.493c0-.825.668-1.493 1.492-1.493s1.492.668 1.492 1.493zM349.518 154.203c0 .825-.668 1.493-1.492 1.493s-1.492-.668-1.492-1.493c0-.825.668-1.493 1.492-1.493s1.492.668 1.492 1.493zM355.09 154.203c0 .825-.668 1.493-1.492 1.493s-1.492-.668-1.492-1.493c0-.825.668-1.493 1.492-1.493s1.492.668 1.492 1.493zM360.662 154.203c0 .825-.668 1.493-1.492 1.493s-1.492-.668-1.492-1.493c0-.825.668-1.493 1.492-1.493s1.492.668 1.492 1.493zM366.234 154.203c0 .825-.668 1.493-1.492 1.493s-1.492-.668-1.492-1.493c0-.825.668-1.493 1.492-1.493s1.492.668 1.492 1.493zM371.807 154.203c0 .825-.668 1.493-1.492 1.493s-1.492-.668-1.492-1.493c0-.825.668-1.493 1.492-1.493s1.492.668 1.492 1.493zM377.379 154.203c0 .825-.668 1.493-1.492 1.493s-1.492-.668-1.492-1.493c0-.825.668-1.493 1.492-1.493s1.492.668 1.492 1.493z"/></g><g stroke-width="1.797" stroke-linecap="round" stroke-linejoin="round" stroke-miterlimit="10" fill="none"><path stroke="#F9C332" d="M195.547 115.707v25.943h44.934z"/><path stroke="#262262" d="M228.615 146.248h-44.934999999999995l.001 25.943z"/></g><g stroke-width="1.5" stroke-linecap="round" stroke-linejoin="round" stroke-miterlimit="10" fill="none"><path stroke="#EE2A7B" d="M443.516 385.275v15.241h26.395z"/><path stroke="#F9C332" d="M462.94 403.217h-26.396l.001 15.239z"/></g><path d="M281.081 157.609c0 5.579-4.522 10.104-10.104 10.104-5.579 0-10.102-4.525-10.102-10.104 0-5.581 4.522-10.105 10.102-10.105 5.582 0 10.104 4.524 10.104 10.105z" fill="#00BDC2"/><path d="M473.755 265.735c9.004 64.094-35.65 123.352-99.738 132.352-64.085 9.004-123.339-35.657-132.341-99.741-9.003-64.099 35.652-123.351 99.738-132.355 64.09-9.002 123.341 35.655 132.341 99.744z" opacity=".4" fill="url(#SVGID_1_)"/></g>
</svg>